<?xml version="1.0" encoding="UTF-8" standalone="no"?>
<svg
   xmlns:dc="http://purl.org/dc/elements/1.1/"
   xmlns:cc="http://creativecommons.org/ns#"
   xmlns:rdf="http://www.w3.org/1999/02/22-rdf-syntax-ns#"
   xmlns:svg="http://www.w3.org/2000/svg"
   xmlns="http://www.w3.org/2000/svg"
   xmlns:xlink="http://www.w3.org/1999/xlink"
   xml:space="preserve"
   style="enable-background:new 0 0 738 852;"
   viewBox="0 0 738 852"
   y="0px"
   x="0px"
   id="Layer_1"
   version="1.1"><metadata
     id="metadata415"><rdf:RDF><cc:Work
         rdf:about=""><dc:format>image/svg+xml</dc:format><dc:type
           rdf:resource="http://purl.org/dc/dcmitype/StillImage" /><dc:title>tidyverse</dc:title></cc:Work></rdf:RDF></metadata><defs
     id="defs413"><linearGradient
       spreadMethod="pad"
       gradientUnits="userSpaceOnUse"
       y2="593.78698"
       y1="3.6658269"
       x2="590.86259"
       x1="0.74144253"
       id="gradientFill-1"
       gradientTransform="matrix(0.53129899,0,0,0.35582593,57.71791,206.88076)"><stop
         id="stop133"
         stop-opacity="1"
         stop-color="rgb(203,206,208)"
         offset="0" /><stop
         id="stop135"
         stop-opacity="1"
         stop-color="rgb(132,131,139)"
         offset="1" /></linearGradient><linearGradient
       spreadMethod="pad"
       gradientUnits="objectBoundingBox"
       y2="1"
       y1="0"
       x2="1"
       x1="0"
       id="gradientFill-2"><stop
         id="stop138"
         stop-opacity="1"
         stop-color="rgb(39,109,195)"
         offset="0" /><stop
         id="stop140"
         stop-opacity="1"
         stop-color="rgb(22,92,170)"
         offset="1" /></linearGradient><linearGradient
       xlink:href="#gradientFill-2"
       id="linearGradient274"
       gradientUnits="userSpaceOnUse"
       x1="2.7647755"
       y1="7.229316"
       x2="119.14274"
       y2="123.60728"
       spreadMethod="pad"
       gradientTransform="matrix(1.1126291,0,0,0.44333558,169.52232,254.32092)" /></defs><style
     id="style2"
     type="text/css">
	.st0{fill:#141227;}
	.st1{opacity:0.94;}
	.st2{fill:#FFFFFF;}
	.st3{fill:#E6B35A;}
	.st4{opacity:0.8;fill:#F2F2F2;enable-background:new    ;}
	.st5{fill:#F7A238;}
	.st6{fill:#0088C5;}
	.st7{fill:#7FB036;}
	.st8{fill:#F9ECC6;}
	.st9{fill:#FFF34D;}
	.st10{fill:#B57AB4;}
	.st11{fill:#DB1F26;}
	.st12{fill:#F26524;}
	.st13{fill:#00A5DC;}
	.st14{fill:#164F86;}
	.st15{fill:#36A85D;}
	.st16{fill:#FFFEF9;}
	.st17{fill:#EF4782;}
	.st18{fill:#404040;}
</style><title
     id="title4">tidyverse</title><polygon
     transform="translate(-0.2,-1.6)"
     id="polygon5537"
     points="716.6,225.7 369,25 21.4,225.7 21.4,627 369,827.7 716.6,627 "
     class="st0"
     style="fill:#ffffff" /><path
     style="fill:#929299;fill-opacity:1"
     id="path408"
     d="M736.4,638.4V214.1l-29.3-16.9L429.3,36.8L369,2l-60.3,34.8L30.9,197.2L1.6,214.1v424.3l29.3,16.9l281.3,162.4  l56.9,32.8l56.9-32.8l281.3-162.4L736.4,638.4z M30.9,622.5V232.1L369,36.8l0,0L707.1,232v390.4L369,817.7L30.9,622.5z"
     class="st18" /><g
     id="text4162"
     style="font-style:normal;font-weight:normal;font-size:133.65263367px;line-height:1.25;font-family:sans-serif;letter-spacing:0px;word-spacing:0px;fill:#165caa;fill-opacity:1;stroke:none;stroke-width:3.34131646"
     transform="scale(1.0144528,0.98575311)"
     aria-label="queryparser"><path
       id="path840"
       style="letter-spacing:-10px"
       d="m 113.44806,624.56736 h 11.76149 v -73.37567 c 0,-6.68266 0.13365,-12.2961 0.40096,-17.77589 h -11.09322 l -0.40096,9.7567 h -0.26731 c -3.20768,-6.28171 -9.89035,-11.22688 -19.914343,-11.22688 -13.632637,0 -29.270074,10.69226 -29.270074,34.88351 0,19.64704 12.296104,32.74506 27.398927,32.74506 10.42496,0 17.64224,-5.07883 21.11722,-11.49418 h 0.26731 z m 0,-52.79306 c 0,1.7375 -0.40096,4.0096 -0.93557,5.61344 -2.67307,8.15285 -9.22208,12.83072 -16.84032,12.83072 -12.964371,0 -19.112423,-11.22688 -19.112423,-24.0576 0,-14.56821 7.350932,-24.85951 19.513383,-24.85951 8.82112,0 15.10282,6.14805 16.84032,13.36533 0.40096,1.47019 0.53461,3.34133 0.53461,4.94517 z" /><path
       id="path842"
       style="letter-spacing:-8.25856876px;fill:#165caa;fill-opacity:1;stroke-width:3.34131646"
       d="m 188.65204,533.4158 h -11.76149 v 39.69504 c 0,2.13845 -0.40096,4.2769 -1.06923,6.01439 -2.13845,5.21248 -7.61823,10.69227 -15.50378,10.69227 -10.69226,0 -14.43456,-8.28651 -14.43456,-20.58261 V 533.4158 h -11.76149 v 37.82389 c 0,22.72106 12.16245,28.3345 22.32011,28.3345 11.49418,0 18.3105,-6.81632 21.38452,-12.0288 h 0.26731 l 0.66827,10.55861 h 10.42496 c -0.40096,-5.07882 -0.53462,-10.95957 -0.53462,-17.64223 z" /><path
       id="path844"
       style="letter-spacing:-8.25856876px;fill:#165caa;fill-opacity:1;stroke-width:3.34131646"
       d="m 251.86875,567.89836 c 0.13365,-1.20288 0.40096,-3.07403 0.40096,-5.47979 0,-11.89514 -5.61344,-30.47295 -26.73067,-30.47295 -18.84511,0 -30.3393,15.37013 -30.3393,34.88351 0,19.51338 11.89515,32.61141 31.80949,32.61141 10.2913,0 17.37493,-2.13846 21.51818,-4.0096 l -2.0048,-8.42016 c -4.41056,1.87115 -9.48938,3.34133 -17.90954,3.34133 -11.76149,0 -21.91914,-6.54901 -22.18645,-22.45375 z m -45.30848,-8.42016 c 0.93558,-8.15285 6.14806,-19.11242 18.0432,-19.11242 13.23168,0 16.43936,11.62783 16.3057,19.11242 z" /><path
       id="path846"
       style="letter-spacing:1px;fill:#165caa;fill-opacity:1"
       d="m 258.70674,598.104 h 11.62784 v -34.48255 c 0,-2.0048 0.26731,-3.87594 0.53461,-5.47978 1.60384,-8.82112 7.48459,-15.10283 15.77109,-15.10283 1.60384,0 2.80672,0.13366 4.0096,0.40096 v -11.09322 c -1.06922,-0.26731 -2.0048,-0.40096 -3.34133,-0.40096 -7.88555,0 -14.96917,5.47978 -17.90954,14.16725 h -0.53462 l -0.40096,-12.69707 h -10.2913 c 0.40096,6.0144 0.53461,12.56341 0.53461,20.18165 z" /><path
       id="path848"
       style="letter-spacing:-7px;fill:#165caa;fill-opacity:1"
       d="m 294.74688,533.4158 23.92394,59.60938 c 0.53461,1.47018 0.80192,2.40576 0.80192,3.07402 0,0.66827 -0.40096,1.60384 -0.93557,2.80672 -2.67307,6.0144 -6.68267,10.55861 -9.89035,13.09803 -3.47498,2.94037 -7.35093,4.81152 -10.2913,5.74709 l 2.94037,9.89034 c 2.94037,-0.53461 8.68747,-2.53941 14.43456,-7.61823 8.0192,-6.94998 13.76629,-18.31051 22.18645,-40.49696 l 17.64223,-46.11039 h -12.42976 l -12.83071,37.95754 c -1.60384,4.67787 -2.94038,9.62304 -4.14325,13.49899 h -0.26731 c -1.06923,-3.87595 -2.67307,-8.95477 -4.14325,-13.23168 L 307.5776,533.4158 Z" /><path
       id="path850"
       style="letter-spacing:-7px"
       d="m 359.21173,624.56736 h 11.62784 v -35.15082 h 0.26731 c 3.87594,6.41536 11.36053,10.15765 19.91434,10.15765 15.23647,0 29.40372,-11.49418 29.40372,-34.74986 0,-19.64703 -11.76149,-32.87871 -27.39892,-32.87871 -10.55861,0 -18.17685,4.67786 -22.98837,12.56341 h -0.26731 l -0.53461,-11.09323 h -10.55861 c 0.2673,6.14806 0.53461,12.83072 0.53461,21.11723 z m 11.62784,-63.88628 c 0,-1.60384 0.40096,-3.34133 0.80192,-4.81152 2.2721,-8.82112 9.75669,-14.56821 17.77589,-14.56821 12.42976,0 19.24607,11.09322 19.24607,24.05759 0,14.83552 -7.21727,24.99317 -19.64703,24.99317 -8.42016,0 -15.50379,-5.61344 -17.64224,-13.76629 -0.2673,-1.47018 -0.53461,-3.07402 -0.53461,-4.81152 z" /><path
       id="path852"
       style="letter-spacing:-12px"
       d="m 474.68619,598.104 c -0.80192,-4.41056 -1.06923,-9.89034 -1.06923,-15.50378 v -24.19125 c 0,-12.96437 -4.81152,-26.46335 -24.59221,-26.46335 -8.15285,0 -15.90474,2.2721 -21.25087,5.74709 l 2.67306,7.75189 c 4.54421,-2.94037 10.82592,-4.81152 16.84032,-4.81152 13.23168,0 14.70186,9.62304 14.70186,14.96917 v 1.33654 c -24.99317,-0.13366 -38.89311,8.42015 -38.89311,24.05759 0,9.35573 6.68267,18.57781 19.78069,18.57781 9.22208,0 16.17205,-4.54421 19.78069,-9.62304 h 0.40096 l 0.93557,8.15285 z m -12.42976,-21.78548 c 0,1.20287 -0.26731,2.53941 -0.66827,3.74229 -1.87114,5.47978 -7.21728,10.82592 -15.63743,10.82592 -6.0144,0 -11.09323,-3.60864 -11.09323,-11.22688 0,-12.56341 14.56821,-14.83552 27.39893,-14.56821 z" /><path
       id="path854"
       style="letter-spacing:-5px;fill:#165caa;fill-opacity:1"
       d="m 480.6521,598.104 h 11.62784 v -34.48255 c 0,-2.0048 0.2673,-3.87594 0.53461,-5.47978 1.60384,-8.82112 7.48459,-15.10283 15.77109,-15.10283 1.60384,0 2.80672,0.13366 4.0096,0.40096 v -11.09322 c -1.06923,-0.26731 -2.0048,-0.40096 -3.34133,-0.40096 -7.88555,0 -14.96917,5.47978 -17.90955,14.16725 h -0.53461 l -0.40096,-12.69707 h -10.2913 c 0.40096,6.0144 0.53461,12.56341 0.53461,20.18165 z" /><path
       id="path856"
       style="letter-spacing:-7px"
       d="m 514.70185,595.02998 c 4.54421,2.67306 11.09323,4.41056 18.17685,4.41056 15.37013,0 24.19125,-8.0192 24.19125,-19.37973 0,-9.62304 -5.74709,-15.23648 -16.97397,-19.51338 -8.42016,-3.20768 -12.2961,-5.61344 -12.2961,-10.95958 0,-4.81151 3.87594,-8.82111 10.82591,-8.82111 6.0144,0 10.69227,2.13845 13.23168,3.74229 l 2.94037,-8.55381 c -3.60864,-2.13846 -9.35573,-4.0096 -15.90474,-4.0096 -13.89994,0 -22.3201,8.55381 -22.3201,18.97877 0,7.75189 5.47978,14.16725 17.10762,18.3105 8.68747,3.20768 12.0288,6.28171 12.0288,11.89514 0,5.34614 -4.0096,9.62304 -12.56341,9.62304 -5.88075,0 -12.0288,-2.40576 -15.50379,-4.67786 z" /><path
       id="path858"
       style="letter-spacing:-8.25856876px;fill:#165caa;fill-opacity:1;stroke-width:3.34131646"
       d="m 617.22865,567.89836 c 0.13366,-1.20288 0.40096,-3.07403 0.40096,-5.47979 0,-11.89514 -5.61343,-30.47295 -26.73066,-30.47295 -18.84511,0 -30.3393,15.37013 -30.3393,34.88351 0,19.51338 11.89515,32.61141 31.80949,32.61141 10.2913,0 17.37493,-2.13846 21.51818,-4.0096 l -2.0048,-8.42016 c -4.41056,1.87115 -9.48938,3.34133 -17.90954,3.34133 -11.76149,0 -21.91914,-6.54901 -22.18645,-22.45375 z m -45.30847,-8.42016 c 0.93558,-8.15285 6.14806,-19.11242 18.0432,-19.11242 13.23168,0 16.43936,11.62783 16.3057,19.11242 z" /><path
       id="path860"
       style="letter-spacing:-8.25856876px;fill:#165caa;fill-opacity:1;stroke-width:3.34131646"
       d="m 624.06665,598.104 h 11.62784 v -34.48255 c 0,-2.0048 0.2673,-3.87594 0.53461,-5.47978 1.60384,-8.82112 7.48459,-15.10283 15.77109,-15.10283 1.60384,0 2.80672,0.13366 4.0096,0.40096 v -11.09322 c -1.06923,-0.26731 -2.0048,-0.40096 -3.34133,-0.40096 -7.88555,0 -14.96917,5.47978 -17.90954,14.16725 h -0.53462 l -0.40096,-12.69707 h -10.2913 c 0.40096,6.0144 0.53461,12.56341 0.53461,20.18165 z" /></g><g
     transform="translate(0,-2)"
     id="g851"><path
       style="fill:url(#gradientFill-1);fill-rule:evenodd;stroke-width:0.43479875"
       d="m 214.87722,418.16557 c -86.57886,0 -156.765383,-47.00566 -156.765383,-104.98999 0,-57.98476 70.186523,-104.99042 156.765383,-104.99042 86.57931,0 156.76539,47.00566 156.76539,104.99042 0,57.98433 -70.18608,104.98999 -156.76539,104.98999 z m 23.99568,-168.9328 c -65.80766,0 -119.1553,32.13511 -119.1553,71.77571 0,39.6406 53.34764,71.7757 119.1553,71.7757 65.80723,0 114.37206,-21.96994 114.37206,-71.7757 0,-49.79011 -48.56483,-71.77571 -114.37206,-71.77571 z"
       id="path145" /><path
       id="path265"
       d="m 260.98841,266.43434 c -17.97742,0 -32.14897,2.27464 -42.51147,6.82786 -10.28397,4.47473 -18.01689,10.67812 -23.19814,18.60701 -5.10274,7.85037 -7.65194,16.21076 -7.65194,25.08168 3e-5,13.50263 5.02337,24.61175 15.0719,33.32566 9.96998,8.71392 26.65151,15.69821 50.04565,20.95798 14.28767,3.14013 23.39319,6.47713 27.31835,10.00979 3.92522,3.53266 5.88958,7.53636 5.88958,12.0111 0,4.71022 -2.082,8.87081 -6.24271,12.48199 -4.08218,3.53267 -9.92917,5.30093 -17.54402,5.30093 -10.20548,0 -18.05603,-3.49387 -23.55131,-10.48072 -3.37567,-4.31768 -5.61456,-10.59954 -6.71361,-18.8424 l -50.75195,3.17847 c 1.49154,17.42785 7.89104,31.79554 19.19558,43.10005 11.30453,11.30459 31.63683,16.95541 60.99722,16.95541 16.72134,0 30.57571,-2.39229 41.56623,-7.18101 10.99052,-4.86724 19.54698,-11.97264 25.67029,-21.31457 6.12329,-9.34196 9.18576,-19.54908 9.18576,-30.6181 0,-9.42046 -2.31387,-17.9377 -6.9456,-25.55255 -4.55319,-7.61489 -11.89393,-13.97167 -22.02091,-19.07442 -10.04849,-5.18123 -26.73004,-10.28305 -50.04563,-15.30733 -9.42049,-1.96256 -15.38854,-4.08378 -17.90065,-6.36042 -2.59062,-2.19806 -3.88483,-4.67228 -3.88483,-7.41993 0,-3.76818 1.56874,-6.94486 4.70889,-9.53548 3.14013,-2.6691 7.81055,-4.00599 14.01235,-4.00599 7.53636,0 13.42599,1.76826 17.66521,5.30094 4.31772,3.53265 7.14487,9.18352 8.47944,16.95542 l 50.28109,-2.94304 c -2.19812,-17.89888 -9.10746,-30.9297 -20.72601,-39.09406 -11.54005,-8.2429 -28.33922,-12.36427 -50.39876,-12.36427 z m 170.21542,0 c -28.10434,0 -50.00538,7.88976 -65.70611,23.66902 -15.62227,15.70076 -23.4336,37.75864 -23.4336,66.17699 0,29.28193 8.94868,52.00998 26.84751,68.18175 15.15125,13.65967 35.83648,20.48705 62.05673,20.48705 17.74186,0 32.50169,-2.54916 44.27731,-7.65191 2.90461,2.51212 8.00644,6.24132 15.3073,11.18706 7.30084,5.02422 14.68077,9.3417 22.13863,12.95286 l 14.8364,-29.91173 c -5.18126,-2.27661 -9.30259,-4.27675 -12.36424,-6.00383 -2.04111,-1.17754 -6.39776,-4.08317 -13.0706,-8.71489 12.5606,-15.30823 18.84242,-35.71897 18.84242,-61.23268 0,-28.65386 -7.81129,-50.67254 -23.43356,-66.05926 -15.54374,-15.38675 -37.64433,-23.08043 -66.29819,-23.08043 z m 102.74349,2.94305 V 442.00612 H 670.54278 V 399.49811 H 587.29263 V 269.37739 Z M 431.0861,306.82333 c 11.38305,0 20.29248,3.72917 26.7298,11.18705 6.5158,7.45786 9.77437,19.90038 9.77437,37.32825 0,15.15121 -2.11777,26.53483 -6.35696,34.14967 -2.11961,-1.33455 -4.08401,-2.63221 -5.88956,-3.88827 -7.6149,-5.33826 -12.75592,-8.63258 -15.42507,-9.88863 -2.59059,-1.25607 -6.24135,-2.31843 -10.95159,-3.18194 l -8.36173,19.19557 c 9.65602,3.8467 16.72219,7.92882 21.19689,12.24653 -3.21863,0.70656 -6.63409,1.05951 -10.24527,1.05951 -11.22605,0 -20.05702,-3.80764 -26.49437,-11.42248 -6.43725,-7.61485 -9.65664,-20.84175 -9.65664,-39.68267 0,-16.17174 3.29781,-28.06522 9.89212,-35.6801 6.59433,-7.61488 15.18999,-11.42249 25.78801,-11.42249 z"
       style="fill:url(#linearGradient274);fill-rule:evenodd;stroke-width:0.70233041" /></g><style
     type="text/css"
     id="style5533">
	.st0{fill:#141227;}
	.st1{opacity:0.94;}
	.st2{fill:#FFFFFF;}
	.st3{fill:#E6B35A;}
	.st4{opacity:0.8;fill:#F2F2F2;enable-background:new    ;}
	.st5{fill:#F7A238;}
	.st6{fill:#0088C5;}
	.st7{fill:#7FB036;}
	.st8{fill:#F9ECC6;}
	.st9{fill:#FFF34D;}
	.st10{fill:#B57AB4;}
	.st11{fill:#DB1F26;}
	.st12{fill:#F26524;}
	.st13{fill:#00A5DC;}
	.st14{fill:#164F86;}
	.st15{fill:#36A85D;}
	.st16{fill:#FFFEF9;}
	.st17{fill:#EF4782;}
	.st18{fill:#404040;}
</style></svg>