<?xml version="1.0" encoding="UTF-8" standalone="no"?>
<svg
   xmlns:dc="http://purl.org/dc/elements/1.1/"
   xmlns:cc="http://creativecommons.org/ns#"
   xmlns:rdf="http://www.w3.org/1999/02/22-rdf-syntax-ns#"
   xmlns:svg="http://www.w3.org/2000/svg"
   xmlns="http://www.w3.org/2000/svg"
   xml:space="preserve"
   style="enable-background:new 0 0 738 852;"
   viewBox="0 0 738 852"
   y="0px"
   x="0px"
   id="Layer_1"
   version="1.1"><metadata
     id="metadata415"><rdf:RDF><cc:Work
         rdf:about=""><dc:format>image/svg+xml</dc:format><dc:type
           rdf:resource="http://purl.org/dc/dcmitype/StillImage" /><dc:title>tidyverse</dc:title></cc:Work></rdf:RDF></metadata><defs
     id="defs413"><linearGradient
       spreadMethod="pad"
       gradientUnits="userSpaceOnUse"
       y2="593.78698"
       y1="3.6658269"
       x2="590.86259"
       x1="0.74144253"
       id="gradientFill-1"
       gradientTransform="matrix(0.53129899,0,0,0.35582593,57.71791,206.88076)"><stop
         id="stop133"
         stop-opacity="1"
         stop-color="rgb(203,206,208)"
         offset="0" /><stop
         id="stop135"
         stop-opacity="1"
         stop-color="rgb(132,131,139)"
         offset="1" /></linearGradient><linearGradient
       spreadMethod="pad"
       gradientUnits="objectBoundingBox"
       y2="1"
       y1="0"
       x2="1"
       x1="0"
       id="gradientFill-2"><stop
         id="stop138"
         stop-opacity="1"
         stop-color="rgb(39,109,195)"
         offset="0" /><stop
         id="stop140"
         stop-opacity="1"
         stop-color="rgb(22,92,170)"
         offset="1" /></linearGradient></defs><style
     id="style2"
     type="text/css">
	.st0{fill:#141227;}
	.st1{opacity:0.94;}
	.st2{fill:#FFFFFF;}
	.st3{fill:#E6B35A;}
	.st4{opacity:0.8;fill:#F2F2F2;enable-background:new    ;}
	.st5{fill:#F7A238;}
	.st6{fill:#0088C5;}
	.st7{fill:#7FB036;}
	.st8{fill:#F9ECC6;}
	.st9{fill:#FFF34D;}
	.st10{fill:#B57AB4;}
	.st11{fill:#DB1F26;}
	.st12{fill:#F26524;}
	.st13{fill:#00A5DC;}
	.st14{fill:#164F86;}
	.st15{fill:#36A85D;}
	.st16{fill:#FFFEF9;}
	.st17{fill:#EF4782;}
	.st18{fill:#404040;}
</style><title
     id="title4">tidyverse</title><polygon
     transform="translate(-0.2,-1.6)"
     id="polygon5537"
     points="716.6,225.7 369,25 21.4,225.7 21.4,627 369,827.7 716.6,627 "
     class="st0"
     style="fill:#282a36;fill-opacity:1" /><path
     style="fill:#282a36;fill-opacity:1"
     id="path408"
     d="M736.4,638.4V214.1l-29.3-16.9L429.3,36.8L369,2l-60.3,34.8L30.9,197.2L1.6,214.1v424.3l29.3,16.9l281.3,162.4  l56.9,32.8l56.9-32.8l281.3-162.4L736.4,638.4z M30.9,622.5V232.1L369,36.8l0,0L707.1,232v390.4L369,817.7L30.9,622.5z"
     class="st18" /><g
     id="text4162"
     style="font-style:normal;font-weight:normal;font-size:133.65263367px;line-height:1.25;font-family:sans-serif;letter-spacing:0px;word-spacing:0px;fill:#ffffff;fill-opacity:1;stroke:none;stroke-width:3.34131646"
     transform="scale(1.0144528,0.98575311)"
     aria-label="select *"><path
       id="path863"
       style="fill:#f8f8f2;fill-opacity:1"
       d="m 63.723179,307.76623 q 5.479787,4.0096 11.761494,6.41536 6.281706,2.40576 15.102826,2.40576 8.821121,0 13.098031,-2.94037 4.2769,-2.94038 4.2769,-7.21728 0,-3.7423 -4.67786,-6.68267 -4.544217,-2.94037 -16.439364,-5.88075 -5.078827,-1.20288 -9.62304,-2.94037 -4.41056,-1.73749 -7.751894,-4.0096 -3.341333,-2.40576 -5.346133,-5.21248 -2.0048,-2.80672 -2.0048,-6.28171 0,-3.87594 1.737493,-7.21728 1.737494,-3.47498 5.078827,-5.88074 3.474987,-2.53942 8.553814,-3.87595 5.21248,-1.47019 11.895146,-1.47019 7.350934,0 14.300911,2.53942 6.94997,2.40576 11.76149,5.74709 l -5.34613,7.08363 q -4.27691,-3.07403 -9.48939,-4.94518 -5.21248,-1.87114 -11.226881,-1.87114 -4.544213,0 -7.61824,0.80192 -3.074026,0.66826 -4.945173,2.0048 -1.871147,1.20288 -2.673067,2.94037 -0.80192,1.73749 -0.80192,3.60864 0,4.0096 5.479787,6.68267 5.479787,2.53941 14.300907,4.81152 13.231677,3.34133 19.513387,7.61824 6.41536,4.2769 6.41536,11.76149 0,4.0096 -1.87115,7.48459 -1.87114,3.47498 -5.61344,6.14805 -3.60864,2.67307 -9.08842,4.14325 -5.346137,1.60384 -12.296111,1.60384 -9.62304,0 -17.775893,-2.94037 -8.0192,-3.07403 -14.0336,-7.21728 z" /><path
       id="path865"
       style="fill:#f8f8f2;fill-opacity:1"
       d="m 128.11588,291.19322 q 0,-8.0192 2.80672,-14.30091 2.80672,-6.41536 7.35093,-10.82592 4.67787,-4.41056 10.55862,-6.68267 6.0144,-2.40576 12.2961,-2.40576 6.94998,0 12.42976,2.27211 5.47979,2.13845 9.22208,6.14805 3.87595,4.0096 5.88075,9.62304 2.0048,5.61344 2.0048,12.42976 0,1.7375 -0.13365,3.47499 0,1.60384 -0.26731,2.80672 h -50.78827 q 0.13366,5.21248 2.0048,9.35573 2.0048,4.14326 5.21248,7.08363 3.34134,2.94037 7.7519,4.54421 4.54421,1.60384 9.89034,1.60384 5.7471,0 10.42496,-1.60384 4.81152,-1.60384 9.35574,-4.41056 l 3.87594,7.21728 q -4.81152,3.07403 -10.95957,5.34614 -6.14805,2.2721 -14.0336,2.2721 -7.21728,0 -13.63264,-2.2721 -6.28171,-2.40576 -11.09323,-6.68267 -4.67786,-4.41056 -7.48458,-10.69227 -2.67307,-6.2817 -2.67307,-14.3009 z m 52.39211,-5.34614 q 0,-9.75669 -5.07883,-14.96917 -5.07883,-5.21248 -14.16725,-5.21248 -4.0096,0 -7.7519,1.33653 -3.60864,1.33654 -6.54901,4.0096 -2.94037,2.53942 -4.94517,6.28171 -2.0048,3.74229 -2.67307,8.55381 z" /><path
       id="path867"
       style="fill:#f8f8f2;fill-opacity:1"
       d="m 199.85951,228.37615 h 33.14603 v 74.1776 q 0,7.21728 3.34133,10.42496 3.47499,3.07403 9.35574,3.07403 5.34613,0 12.2961,-3.07403 l 2.80672,8.28651 q -4.41056,1.60384 -8.2865,2.67306 -3.87595,1.20288 -9.22208,1.20288 -10.42496,0 -15.90475,-5.88074 -5.34613,-5.88075 -5.34613,-17.50859 v -64.42091 h -22.18646 z" /><path
       id="path869"
       style="fill:#f8f8f2;fill-opacity:1"
       d="m 268.39546,291.19322 q 0,-8.0192 2.80672,-14.30091 2.80672,-6.41536 7.35093,-10.82592 4.67787,-4.41056 10.55862,-6.68267 6.0144,-2.40576 12.2961,-2.40576 6.94998,0 12.42976,2.27211 5.47979,2.13845 9.22208,6.14805 3.87595,4.0096 5.88075,9.62304 2.0048,5.61344 2.0048,12.42976 0,1.7375 -0.13365,3.47499 0,1.60384 -0.26731,2.80672 h -50.78827 q 0.13366,5.21248 2.0048,9.35573 2.0048,4.14326 5.21248,7.08363 3.34134,2.94037 7.7519,4.54421 4.54421,1.60384 9.89034,1.60384 5.7471,0 10.42496,-1.60384 4.81152,-1.60384 9.35574,-4.41056 l 3.87594,7.21728 q -4.81152,3.07403 -10.95957,5.34614 -6.14805,2.2721 -14.0336,2.2721 -7.21728,0 -13.63264,-2.2721 -6.28171,-2.40576 -11.09323,-6.68267 -4.67787,-4.41056 -7.48459,-10.69227 -2.67306,-6.2817 -2.67306,-14.3009 z m 52.39211,-5.34614 q 0,-9.75669 -5.07883,-14.96917 -5.07883,-5.21248 -14.16725,-5.21248 -4.0096,0 -7.7519,1.33653 -3.60864,1.33654 -6.54901,4.0096 -2.94037,2.53942 -4.94517,6.28171 -2.0048,3.74229 -2.67307,8.55381 z" /><path
       id="path871"
       style="fill:#f8f8f2;fill-opacity:1"
       d="m 340.00545,291.19322 q 0,-8.15286 2.80672,-14.43456 2.94037,-6.41536 7.88554,-10.82592 4.94518,-4.41056 11.49419,-6.68267 6.68267,-2.27211 14.0336,-2.27211 8.0192,0 13.76629,2.80672 5.88075,2.80672 9.89035,6.68267 l -5.47979,7.08363 q -4.0096,-3.47499 -8.42016,-5.47979 -4.2769,-2.0048 -9.35573,-2.0048 -5.61344,0 -10.29131,1.87115 -4.67786,1.73749 -8.0192,5.07882 -3.20768,3.34134 -5.07882,8.0192 -1.87115,4.54422 -1.87115,10.15766 0,5.61344 1.73749,10.15765 1.87115,4.54421 5.07883,7.88555 3.34133,3.20768 7.88555,5.07882 4.67786,1.7375 10.2913,1.7375 6.0144,0 10.95958,-2.27211 5.07882,-2.40576 9.22208,-5.88075 l 4.81152,7.08363 q -5.34614,4.81152 -12.0288,7.48459 -6.54902,2.67306 -13.7663,2.67306 -7.61824,0 -14.16725,-2.2721 -6.41536,-2.27211 -11.22688,-6.54902 -4.81152,-4.41056 -7.48459,-10.69226 -2.67306,-6.41536 -2.67306,-14.43456 z" /><path
       id="path873"
       style="fill:#f8f8f2;fill-opacity:1"
       d="m 426.98557,267.53658 h -18.31051 v -8.28651 l 18.71147,-0.66827 1.47018,-18.17685 h 9.08843 v 18.17685 h 31.94315 v 8.95478 h -31.94315 v 30.87392 q 0,4.41056 0.80192,7.75189 0.80192,3.20768 2.67307,5.47979 1.87114,2.2721 5.07882,3.47498 3.20768,1.06923 7.88555,1.06923 4.67787,0 8.42016,-0.80192 3.74229,-0.80192 7.21728,-2.13845 l 2.40576,8.0192 q -4.41056,1.60384 -9.75669,2.67306 -5.34614,1.20288 -10.69227,1.20288 -7.08363,0 -11.89515,-1.87114 -4.81152,-2.0048 -7.75189,-5.47979 -2.80672,-3.60864 -4.14325,-8.55381 -1.20288,-4.94518 -1.20288,-10.95958 z" /><path
       id="path875"
       style="font-style:normal;font-variant:normal;font-weight:600;font-stretch:normal;font-size:133.65333557px;font-family:'Source Code Pro';-inkscape-font-specification:'Source Code Pro, Semi-Bold';font-variant-ligatures:normal;font-variant-caps:normal;font-variant-numeric:normal;font-feature-settings:normal;text-align:start;writing-mode:lr-tb;text-anchor:start;fill:#50fa7b;fill-opacity:1"
       d="m 556.97383,305.09316 13.7663,-21.51818 -21.11723,-9.22208 2.53941,-7.88555 22.0528,6.54901 1.33654,-24.45856 h 8.55381 l 1.33653,24.45856 22.0528,-6.54901 2.53942,7.88555 -21.11723,9.22208 13.76629,21.51818 -7.08362,4.94518 -15.7711,-20.048 -15.77109,20.048 z" /></g><style
     type="text/css"
     id="style5533">
	.st0{fill:#141227;}
	.st1{opacity:0.94;}
	.st2{fill:#FFFFFF;}
	.st3{fill:#E6B35A;}
	.st4{opacity:0.8;fill:#F2F2F2;enable-background:new    ;}
	.st5{fill:#F7A238;}
	.st6{fill:#0088C5;}
	.st7{fill:#7FB036;}
	.st8{fill:#F9ECC6;}
	.st9{fill:#FFF34D;}
	.st10{fill:#B57AB4;}
	.st11{fill:#DB1F26;}
	.st12{fill:#F26524;}
	.st13{fill:#00A5DC;}
	.st14{fill:#164F86;}
	.st15{fill:#36A85D;}
	.st16{fill:#FFFEF9;}
	.st17{fill:#EF4782;}
	.st18{fill:#404040;}
</style><style
     type="text/css"
     id="style2-3">
	.st0{fill:#141227;}
	.st1{opacity:0.94;}
	.st2{fill:#FFFFFF;}
	.st3{fill:#E6B35A;}
	.st4{opacity:0.8;fill:#F2F2F2;enable-background:new    ;}
	.st5{fill:#F7A238;}
	.st6{fill:#0088C5;}
	.st7{fill:#7FB036;}
	.st8{fill:#F9ECC6;}
	.st9{fill:#FFF34D;}
	.st10{fill:#B57AB4;}
	.st11{fill:#DB1F26;}
	.st12{fill:#F26524;}
	.st13{fill:#00A5DC;}
	.st14{fill:#164F86;}
	.st15{fill:#36A85D;}
	.st16{fill:#FFFEF9;}
	.st17{fill:#EF4782;}
	.st18{fill:#404040;}
</style><style
     id="style5533-2"
     type="text/css">
	.st0{fill:#141227;}
	.st1{opacity:0.94;}
	.st2{fill:#FFFFFF;}
	.st3{fill:#E6B35A;}
	.st4{opacity:0.8;fill:#F2F2F2;enable-background:new    ;}
	.st5{fill:#F7A238;}
	.st6{fill:#0088C5;}
	.st7{fill:#7FB036;}
	.st8{fill:#F9ECC6;}
	.st9{fill:#FFF34D;}
	.st10{fill:#B57AB4;}
	.st11{fill:#DB1F26;}
	.st12{fill:#F26524;}
	.st13{fill:#00A5DC;}
	.st14{fill:#164F86;}
	.st15{fill:#36A85D;}
	.st16{fill:#FFFEF9;}
	.st17{fill:#EF4782;}
	.st18{fill:#404040;}
</style><style
     type="text/css"
     id="style2-0">
	.st0{fill:#141227;}
	.st1{opacity:0.94;}
	.st2{fill:#FFFFFF;}
	.st3{fill:#E6B35A;}
	.st4{opacity:0.8;fill:#F2F2F2;enable-background:new    ;}
	.st5{fill:#F7A238;}
	.st6{fill:#0088C5;}
	.st7{fill:#7FB036;}
	.st8{fill:#F9ECC6;}
	.st9{fill:#FFF34D;}
	.st10{fill:#B57AB4;}
	.st11{fill:#DB1F26;}
	.st12{fill:#F26524;}
	.st13{fill:#00A5DC;}
	.st14{fill:#164F86;}
	.st15{fill:#36A85D;}
	.st16{fill:#FFFEF9;}
	.st17{fill:#EF4782;}
	.st18{fill:#404040;}
</style><style
     id="style5533-1"
     type="text/css">
	.st0{fill:#141227;}
	.st1{opacity:0.94;}
	.st2{fill:#FFFFFF;}
	.st3{fill:#E6B35A;}
	.st4{opacity:0.8;fill:#F2F2F2;enable-background:new    ;}
	.st5{fill:#F7A238;}
	.st6{fill:#0088C5;}
	.st7{fill:#7FB036;}
	.st8{fill:#F9ECC6;}
	.st9{fill:#FFF34D;}
	.st10{fill:#B57AB4;}
	.st11{fill:#DB1F26;}
	.st12{fill:#F26524;}
	.st13{fill:#00A5DC;}
	.st14{fill:#164F86;}
	.st15{fill:#36A85D;}
	.st16{fill:#FFFEF9;}
	.st17{fill:#EF4782;}
	.st18{fill:#404040;}
</style><g
     id="text808"
     style="font-style:normal;font-weight:normal;font-size:133.65263367px;line-height:1.25;font-family:sans-serif;letter-spacing:0px;word-spacing:0px;fill:#ffffff;fill-opacity:1;stroke:none;stroke-width:3.34131646"
     transform="scale(1.0144528,0.98575311)"
     aria-label="
from"><path
       id="path878"
       style="font-style:normal;font-variant:normal;font-weight:normal;font-stretch:normal;font-size:133.65330505px;line-height:98.66666412px;font-family:'Source Code Pro';-inkscape-font-specification:'Source Code Pro';font-variant-ligatures:normal;font-variant-caps:normal;font-variant-numeric:normal;font-feature-settings:normal;text-align:start;letter-spacing:-10px;word-spacing:0px;writing-mode:lr-tb;text-anchor:start;fill:#ffffff;fill-opacity:1;stroke-width:3.34131646"
       d="m 123.46622,378.0371 q -4.0096,-1.87115 -7.48459,-2.40576 -3.34133,-0.66827 -7.61824,-0.66827 -8.821117,0 -12.697064,4.54422 -3.742293,4.41056 -3.742293,12.42976 v 5.88075 h 27.265277 v 8.95477 H 91.924033 v 56.00075 H 81.098113 V 406.77257 H 62.520299 v -8.28651 l 18.577814,-0.66826 v -5.47979 q 0,-11.89515 6.281706,-19.11243 6.415361,-7.21728 19.914351,-7.21728 9.62304,0 18.71146,3.74229 z" /><path
       id="path880"
       style="font-style:normal;font-variant:normal;font-weight:normal;font-stretch:normal;font-size:133.65333557px;line-height:98.66666412px;font-family:'Source Code Pro';-inkscape-font-specification:'Source Code Pro, Normal';font-variant-ligatures:normal;font-variant-caps:normal;font-variant-numeric:normal;font-feature-settings:normal;text-align:start;letter-spacing:-10px;word-spacing:0px;writing-mode:lr-tb;text-anchor:start;fill:#f8f8f2;fill-opacity:1;stroke-width:3.34131646"
       d="m 138.40719,397.8178 h 9.08842 l 0.93558,15.37013 h 0.40096 q 5.07882,-7.88555 12.42976,-12.42976 7.48458,-4.54421 16.57301,-4.54421 3.60864,0 6.68267,0.66826 3.07402,0.53462 6.14805,2.0048 l -2.53941,9.48939 q -3.47499,-1.20288 -5.88075,-1.73749 -2.27211,-0.53462 -6.14805,-0.53462 -7.35094,0 -14.16726,4.27691 -6.68266,4.14325 -12.56341,14.30091 v 38.0912 h -10.95957 z" /><path
       id="path882"
       style="font-style:normal;font-variant:normal;font-weight:normal;font-stretch:normal;font-size:133.65333557px;line-height:98.66666412px;font-family:'Source Code Pro';-inkscape-font-specification:'Source Code Pro, Normal';font-variant-ligatures:normal;font-variant-caps:normal;font-variant-numeric:normal;font-feature-settings:normal;text-align:start;letter-spacing:-10px;word-spacing:0px;writing-mode:lr-tb;text-anchor:start;fill:#f8f8f2;fill-opacity:1;stroke-width:3.34131646"
       d="m 197.05279,430.42921 q 0,-8.15285 2.53942,-14.43456 2.67306,-6.41536 7.08362,-10.82592 4.41056,-4.41056 10.15766,-6.68267 5.88074,-2.2721 12.2961,-2.2721 6.41536,0 12.16246,2.2721 5.88074,2.27211 10.2913,6.68267 4.41056,4.41056 6.94998,10.82592 2.67306,6.28171 2.67306,14.43456 0,8.0192 -2.67306,14.43456 -2.53942,6.28171 -6.94998,10.69227 -4.41056,4.2769 -10.2913,6.54901 -5.7471,2.27211 -12.16246,2.27211 -6.41536,0 -12.2961,-2.27211 -5.7471,-2.27211 -10.15766,-6.54901 -4.41056,-4.41056 -7.08362,-10.69227 -2.53942,-6.41536 -2.53942,-14.43456 z m 11.36054,0 q 0,5.61344 1.47018,10.15765 1.47019,4.54422 4.14326,7.88555 2.80672,3.20768 6.54901,5.07883 3.87595,1.73749 8.55381,1.73749 4.67787,0 8.42016,-1.73749 3.87595,-1.87115 6.54902,-5.07883 2.80672,-3.34133 4.2769,-7.88555 1.47019,-4.54421 1.47019,-10.15765 0,-5.61344 -1.47019,-10.15765 -1.47018,-4.67787 -4.2769,-8.0192 -2.67307,-3.34134 -6.54902,-5.07883 -3.74229,-1.87115 -8.42016,-1.87115 -4.67786,0 -8.55381,1.87115 -3.74229,1.73749 -6.54901,5.07883 -2.67307,3.34133 -4.14326,8.0192 -1.47018,4.54421 -1.47018,10.15765 z" /><path
       id="path884"
       style="font-style:normal;font-variant:normal;font-weight:normal;font-stretch:normal;font-size:133.65333557px;line-height:98.66666412px;font-family:'Source Code Pro';-inkscape-font-specification:'Source Code Pro, Normal';font-variant-ligatures:normal;font-variant-caps:normal;font-variant-numeric:normal;font-feature-settings:normal;text-align:start;letter-spacing:-10px;word-spacing:0px;writing-mode:lr-tb;text-anchor:start;fill:#f8f8f2;fill-opacity:1;stroke-width:3.34131646"
       d="m 267.19258,397.8178 h 8.55381 l 0.93557,8.55381 h 0.40096 q 2.40576,-4.54421 5.61345,-7.35093 3.34133,-2.80672 8.95477,-2.80672 9.89035,0 12.29611,11.22688 2.94037,-5.07883 6.41536,-8.15286 3.47498,-3.07402 8.95477,-3.07402 6.81632,0 10.42496,5.21248 3.74229,5.07882 3.74229,14.83552 v 46.51136 h -10.55861 v -45.57579 q 0,-11.49419 -7.08363,-11.49419 -3.47498,0 -6.0144,2.53942 -2.53941,2.40576 -5.07882,7.48458 v 47.04598 h -8.82112 v -45.57579 q 0,-11.49419 -7.35094,-11.49419 -3.47498,0 -5.88074,2.53942 -2.40576,2.40576 -4.94518,7.48458 v 47.04598 h -10.55861 z" /></g><g
     id="text816"
     style="font-style:normal;font-weight:normal;font-size:133.65263367px;line-height:1.25;font-family:sans-serif;letter-spacing:0px;word-spacing:0px;fill:#ff0000;fill-opacity:1;stroke:none;stroke-width:3.34131646"
     transform="scale(1.0144528,0.98575311)"
     aria-label="tidyquery"><path
       id="path887"
       style="font-style:normal;font-variant:normal;font-weight:600;font-stretch:normal;font-size:133.65333557px;line-height:98.66666412px;font-family:'Source Code Pro';-inkscape-font-specification:'Source Code Pro, Semi-Bold';font-variant-ligatures:normal;font-variant-caps:normal;font-variant-numeric:normal;font-feature-settings:normal;text-align:start;letter-spacing:-10px;word-spacing:0px;writing-mode:lr-tb;text-anchor:start;fill:#bd93f4;fill-opacity:1;stroke-width:3.34131646"
       d="M 74.148139,548.03635 H 56.639552 v -11.49419 l 18.176854,-0.66827 2.0048,-17.90954 h 12.697067 v 17.90954 h 29.938347 v 12.16246 H 89.518273 v 26.99797 q 0,8.15285 3.341333,12.0288 3.341334,3.74229 11.761494,3.74229 4.27691,0 7.75189,-0.66826 3.47499,-0.80192 6.68267,-2.0048 l 2.94037,11.22688 q -4.41056,1.47018 -9.75669,2.53941 -5.34613,1.20288 -11.36053,1.20288 -7.48459,0 -12.563417,-2.0048 -5.078827,-2.0048 -8.286507,-5.61344 -3.074027,-3.74229 -4.544213,-8.95477 -1.336534,-5.21248 -1.336534,-11.49419 z" /><path
       id="path889"
       style="font-style:normal;font-variant:normal;font-weight:600;font-stretch:normal;font-size:133.65333557px;line-height:98.66666412px;font-family:'Source Code Pro';-inkscape-font-specification:'Source Code Pro, Semi-Bold';font-variant-ligatures:normal;font-variant-caps:normal;font-variant-numeric:normal;font-feature-settings:normal;text-align:start;letter-spacing:-10px;word-spacing:0px;writing-mode:lr-tb;text-anchor:start;fill:#bd93f4;fill-opacity:1;stroke-width:3.34131646"
       d="m 130.12068,535.87389 h 43.83829 v 65.62379 h -15.37013 v -53.46133 h -28.46816 z m 35.01717,-11.49418 q -4.67786,0 -7.88554,-2.80672 -3.07403,-2.80672 -3.07403,-7.48459 0,-4.67787 3.07403,-7.48459 3.20768,-2.94037 7.88554,-2.94037 4.81152,0 7.88555,2.94037 3.07403,2.80672 3.07403,7.48459 0,4.67787 -3.07403,7.48459 -3.07403,2.80672 -7.88555,2.80672 z" /><path
       id="path891"
       style="font-style:normal;font-variant:normal;font-weight:600;font-stretch:normal;font-size:133.65333557px;line-height:98.66666412px;font-family:'Source Code Pro';-inkscape-font-specification:'Source Code Pro, Semi-Bold';font-variant-ligatures:normal;font-variant-caps:normal;font-variant-numeric:normal;font-feature-settings:normal;text-align:start;letter-spacing:-10px;word-spacing:0px;writing-mode:lr-tb;text-anchor:start;fill:#bd93f4;fill-opacity:1;stroke-width:3.34131646"
       d="m 196.11722,568.75261 q 0,-8.0192 2.40576,-14.43456 2.40576,-6.41536 6.41536,-10.82592 4.14325,-4.41056 9.35573,-6.81632 5.21248,-2.40576 10.82592,-2.40576 5.88075,0 10.024,2.13846 4.27691,2.0048 8.28651,5.61344 l -0.66827,-11.09323 v -23.79029 h 15.50379 v 94.35925 h -12.69707 l -1.20288,-7.61824 h -0.40096 q -3.87594,3.87595 -9.08842,6.54901 -5.07883,2.67307 -10.69227,2.67307 -6.28171,0 -11.49419,-2.27211 -5.21248,-2.40576 -8.95477,-6.81632 -3.60864,-4.41056 -5.61344,-10.69226 -2.0048,-6.41536 -2.0048,-14.56822 z m 15.90475,-0.13365 q 0,10.69227 4.14325,16.30571 4.14325,5.47978 11.76149,5.47978 8.15286,0 14.83552,-7.88554 v -29.53739 q -3.47498,-3.34133 -6.94997,-4.67787 -3.47499,-1.33653 -7.08363,-1.33653 -3.47498,0 -6.54901,1.47019 -2.94037,1.47018 -5.21248,4.2769 -2.27211,2.67307 -3.60864,6.68267 -1.33653,4.0096 -1.33653,9.22208 z" /><path
       id="path893"
       style="font-style:normal;font-variant:normal;font-weight:600;font-stretch:normal;font-size:133.65333557px;line-height:98.66666412px;font-family:'Source Code Pro';-inkscape-font-specification:'Source Code Pro, Semi-Bold';font-variant-ligatures:normal;font-variant-caps:normal;font-variant-numeric:normal;font-feature-settings:normal;text-align:start;letter-spacing:-10px;word-spacing:0px;writing-mode:lr-tb;text-anchor:start;fill:#bd93f4;fill-opacity:1;stroke-width:3.34131646"
       d="m 271.06852,615.13032 q 1.33654,0.40096 2.67307,0.66827 1.33653,0.2673 2.80672,0.2673 6.28171,0 10.024,-3.20768 3.7423,-3.07402 5.7471,-8.0192 l 1.60384,-4.14325 -29.40374,-64.82187 h 15.37014 l 13.49898,32.21046 q 1.87115,4.41056 3.60864,9.35573 1.7375,4.94517 3.60864,9.89035 h 0.53462 q 1.47018,-4.67787 3.20768,-9.62304 1.73749,-4.94518 3.34133,-9.62304 l 11.89515,-32.21046 h 14.56821 l -27.39893,68.56416 q -2.13846,5.61344 -4.81152,10.024 -2.53942,4.41056 -6.0144,7.48459 -3.47499,3.20768 -8.0192,4.81152 -4.54422,1.73749 -10.42497,1.73749 -2.67306,0 -5.07882,-0.40096 -2.40576,-0.2673 -4.27691,-0.93557 l 2.94037,-12.0288 z" /><path
       id="path895"
       style="font-style:normal;font-variant:normal;font-weight:600;font-stretch:normal;font-size:133.65333557px;line-height:98.66666412px;font-family:'Source Code Pro';-inkscape-font-specification:'Source Code Pro, Semi-Bold';font-variant-ligatures:normal;font-variant-caps:normal;font-variant-numeric:normal;font-feature-settings:normal;text-align:start;letter-spacing:-10px;word-spacing:0px;writing-mode:lr-tb;text-anchor:start;fill:#bd93f4;fill-opacity:1;stroke-width:3.34131646"
       d="m 336.39681,568.75261 q 0,-8.0192 2.40576,-14.43456 2.40576,-6.41536 6.41536,-10.82592 4.14325,-4.41056 9.35573,-6.81632 5.21248,-2.40576 10.82592,-2.40576 5.74709,0 10.29131,2.13846 4.67786,2.13845 8.95477,6.41536 h 0.40096 l 1.33653,-6.94998 h 12.16246 v 91.55254 h -15.50379 v -22.0528 l 0.66827,-10.95958 q -3.87595,3.7423 -8.95478,6.28171 -4.94517,2.40576 -10.2913,2.40576 -6.28171,0 -11.49419,-2.27211 -5.21248,-2.40576 -8.95477,-6.81632 -3.60864,-4.41056 -5.61344,-10.69226 -2.0048,-6.41536 -2.0048,-14.56822 z m 15.90474,-0.13365 q 0,10.69227 4.14326,16.30571 4.14325,5.47978 11.76149,5.47978 8.15285,0 14.83552,-7.88554 v -29.53739 q -3.47499,-3.34133 -6.94997,-4.67787 -3.47499,-1.33653 -7.08363,-1.33653 -3.47499,0 -6.54901,1.47019 -2.94038,1.47018 -5.21248,4.2769 -2.27211,2.67307 -3.60864,6.68267 -1.33654,4.0096 -1.33654,9.22208 z" /><path
       id="path897"
       style="font-style:normal;font-variant:normal;font-weight:600;font-stretch:normal;font-size:133.65333557px;line-height:98.66666412px;font-family:'Source Code Pro';-inkscape-font-specification:'Source Code Pro, Semi-Bold';font-variant-ligatures:normal;font-variant-caps:normal;font-variant-numeric:normal;font-feature-settings:normal;text-align:start;letter-spacing:-10px;word-spacing:0px;writing-mode:lr-tb;text-anchor:start;fill:#bd93f4;fill-opacity:1;stroke-width:3.34131646"
       d="m 468.28445,601.49768 h -12.56342 l -1.20288,-10.42496 h -0.53461 q -4.67787,5.47979 -10.29131,8.82112 -5.61344,3.20768 -12.96437,3.20768 -11.49419,0 -16.70667,-6.81632 -5.21248,-6.94997 -5.21248,-19.78069 v -40.63062 h 15.37014 v 38.62582 q 0,8.0192 2.67306,11.76149 2.80672,3.60864 9.62304,3.60864 4.67787,0 8.28651,-2.13845 3.74229,-2.13846 8.15285,-7.61824 v -44.23926 h 15.37014 z" /><path
       id="path899"
       style="font-style:normal;font-variant:normal;font-weight:600;font-stretch:normal;font-size:133.65333557px;line-height:98.66666412px;font-family:'Source Code Pro';-inkscape-font-specification:'Source Code Pro, Semi-Bold';font-variant-ligatures:normal;font-variant-caps:normal;font-variant-numeric:normal;font-feature-settings:normal;text-align:start;letter-spacing:-10px;word-spacing:0px;writing-mode:lr-tb;text-anchor:start;fill:#bd93f4;fill-opacity:1;stroke-width:3.34131646"
       d="m 477.87926,568.75261 q 0,-8.0192 2.80672,-14.43456 2.94037,-6.41536 7.61824,-10.82592 4.67786,-4.54421 10.69226,-6.81632 6.14806,-2.40576 12.56342,-2.40576 7.35093,0 12.96437,2.40576 5.74709,2.27211 9.62304,6.41536 3.87595,4.0096 5.88075,9.7567 2.0048,5.74709 2.0048,12.56341 0,2.27211 -0.26731,4.27691 -0.13365,2.0048 -0.40096,3.20768 h -47.71424 q 0.80192,8.82112 6.94997,13.63264 6.14806,4.67786 15.10283,4.67786 5.07883,0 9.48939,-1.33653 4.41056,-1.47019 8.95477,-4.0096 l 5.21248,9.62304 q -5.34613,3.34133 -11.89515,5.47979 -6.54901,2.13845 -13.76629,2.13845 -7.48459,0 -14.0336,-2.27211 -6.54901,-2.40576 -11.36053,-6.81632 -4.81152,-4.41056 -7.61824,-10.69226 -2.80672,-6.41536 -2.80672,-14.56822 z m 49.98634,-6.2817 q 0,-7.61824 -4.0096,-11.89515 -4.0096,-4.41056 -11.89514,-4.41056 -6.68267,0 -11.89515,4.14325 -5.21248,4.14326 -6.54901,12.16246 z" /><path
       id="path901"
       style="font-style:normal;font-variant:normal;font-weight:600;font-stretch:normal;font-size:133.65333557px;line-height:98.66666412px;font-family:'Source Code Pro';-inkscape-font-specification:'Source Code Pro, Semi-Bold';font-variant-ligatures:normal;font-variant-caps:normal;font-variant-numeric:normal;font-feature-settings:normal;text-align:start;letter-spacing:-10px;word-spacing:0px;writing-mode:lr-tb;text-anchor:start;fill:#bd93f4;fill-opacity:1;stroke-width:3.34131646"
       d="m 557.10749,535.87389 h 12.69706 l 1.33654,14.83552 h 0.40096 q 5.07882,-8.0192 12.16245,-12.16245 7.21728,-4.27691 15.77109,-4.27691 4.0096,0 6.81632,0.66827 2.94038,0.53461 5.88075,2.0048 l -3.20768,12.96437 q -3.20768,-1.06922 -5.74709,-1.47018 -2.40576,-0.53462 -6.14806,-0.53462 -6.81632,0 -13.09802,3.87595 -6.28171,3.87595 -11.36054,13.49899 v 36.22005 h -15.50378 z" /><path
       id="path903"
       style="font-style:normal;font-variant:normal;font-weight:600;font-stretch:normal;font-size:133.65333557px;line-height:98.66666412px;font-family:'Source Code Pro';-inkscape-font-specification:'Source Code Pro, Semi-Bold';font-variant-ligatures:normal;font-variant-caps:normal;font-variant-numeric:normal;font-feature-settings:normal;text-align:start;letter-spacing:-10px;word-spacing:0px;writing-mode:lr-tb;text-anchor:start;fill:#bd93f4;fill-opacity:1;stroke-width:3.34131646"
       d="m 621.7675,615.13032 q 1.33653,0.40096 2.67307,0.66827 1.33653,0.2673 2.80672,0.2673 6.2817,0 10.024,-3.20768 3.74229,-3.07402 5.74709,-8.0192 l 1.60384,-4.14325 -29.40373,-64.82187 h 15.37013 l 13.49899,32.21046 q 1.87114,4.41056 3.60864,9.35573 1.73749,4.94517 3.60864,9.89035 h 0.53461 q 1.47019,-4.67787 3.20768,-9.62304 1.73749,-4.94518 3.34133,-9.62304 l 11.89515,-32.21046 h 14.56821 l -27.39893,68.56416 q -2.13845,5.61344 -4.81152,10.024 -2.53941,4.41056 -6.0144,7.48459 -3.47499,3.20768 -8.0192,4.81152 -4.54421,1.73749 -10.42496,1.73749 -2.67307,0 -5.07883,-0.40096 -2.40576,-0.2673 -4.2769,-0.93557 l 2.94037,-12.0288 z" /></g><style
     type="text/css"
     id="style2201">
	.st0{fill:#141227;}
	.st1{opacity:0.94;}
	.st2{fill:#FFFFFF;}
	.st3{fill:#E6B35A;}
	.st4{opacity:0.8;fill:#F2F2F2;enable-background:new    ;}
	.st5{fill:#F7A238;}
	.st6{fill:#0088C5;}
	.st7{fill:#7FB036;}
	.st8{fill:#F9ECC6;}
	.st9{fill:#FFF34D;}
	.st10{fill:#B57AB4;}
	.st11{fill:#DB1F26;}
	.st12{fill:#F26524;}
	.st13{fill:#00A5DC;}
	.st14{fill:#164F86;}
	.st15{fill:#36A85D;}
	.st16{fill:#FFFEF9;}
	.st17{fill:#EF4782;}
	.st18{fill:#404040;}
</style><style
     type="text/css"
     id="style2-1">
	.st0{fill:#141227;}
	.st1{opacity:0.94;}
	.st2{fill:#FFFFFF;}
	.st3{fill:#E6B35A;}
	.st4{opacity:0.8;fill:#F2F2F2;enable-background:new    ;}
	.st5{fill:#F7A238;}
	.st6{fill:#0088C5;}
	.st7{fill:#7FB036;}
	.st8{fill:#F9ECC6;}
	.st9{fill:#FFF34D;}
	.st10{fill:#B57AB4;}
	.st11{fill:#DB1F26;}
	.st12{fill:#F26524;}
	.st13{fill:#00A5DC;}
	.st14{fill:#164F86;}
	.st15{fill:#36A85D;}
	.st16{fill:#FFFEF9;}
	.st17{fill:#EF4782;}
	.st18{fill:#404040;}
</style><style
     id="style5533-10"
     type="text/css">
	.st0{fill:#141227;}
	.st1{opacity:0.94;}
	.st2{fill:#FFFFFF;}
	.st3{fill:#E6B35A;}
	.st4{opacity:0.8;fill:#F2F2F2;enable-background:new    ;}
	.st5{fill:#F7A238;}
	.st6{fill:#0088C5;}
	.st7{fill:#7FB036;}
	.st8{fill:#F9ECC6;}
	.st9{fill:#FFF34D;}
	.st10{fill:#B57AB4;}
	.st11{fill:#DB1F26;}
	.st12{fill:#F26524;}
	.st13{fill:#00A5DC;}
	.st14{fill:#164F86;}
	.st15{fill:#36A85D;}
	.st16{fill:#FFFEF9;}
	.st17{fill:#EF4782;}
	.st18{fill:#404040;}
</style></svg>